# Phase 70-04 test asset. 8 verts, 12 tris. Unit cube at origin.
o Cube

# Vertices
v -1.000000 -1.000000  1.000000
v  1.000000 -1.000000  1.000000
v -1.000000  1.000000  1.000000
v  1.000000  1.000000  1.000000
v -1.000000  1.000000 -1.000000
v  1.000000  1.000000 -1.000000
v -1.000000 -1.000000 -1.000000
v  1.000000 -1.000000 -1.000000

# Vertex normals (one per face)
vn  0.0  0.0  1.0
vn  0.0  1.0  0.0
vn  0.0  0.0 -1.0
vn  0.0 -1.0  0.0
vn  1.0  0.0  0.0
vn -1.0  0.0  0.0

# Texture coords
vt 0.0 0.0
vt 1.0 0.0
vt 0.0 1.0
vt 1.0 1.0

# Faces (v/vt/vn)
# Front (+Z)
f 1/1/1 2/2/1 3/3/1
f 3/3/1 2/2/1 4/4/1
# Top (+Y)
f 3/1/2 4/2/2 5/3/2
f 5/3/2 4/2/2 6/4/2
# Back (-Z)
f 5/1/3 6/2/3 7/3/3
f 7/3/3 6/2/3 8/4/3
# Bottom (-Y)
f 7/1/4 8/2/4 1/3/4
f 1/3/4 8/2/4 2/4/4
# Right (+X)
f 2/1/5 8/2/5 4/3/5
f 4/3/5 8/2/5 6/4/5
# Left (-X)
f 7/1/6 1/2/6 5/3/6
f 5/3/6 1/2/6 3/4/6
